<?xml version="1.0" encoding="UTF-8" standalone="no"?>
<!-- Created with Inkscape (http://www.inkscape.org/) -->

<svg
   xmlns:dc="http://purl.org/dc/elements/1.1/"
   xmlns:cc="http://creativecommons.org/ns#"
   xmlns:rdf="http://www.w3.org/1999/02/22-rdf-syntax-ns#"
   xmlns:svg="http://www.w3.org/2000/svg"
   xmlns="http://www.w3.org/2000/svg"
   xmlns:sodipodi="http://sodipodi.sourceforge.net/DTD/sodipodi-0.dtd"
   xmlns:inkscape="http://www.inkscape.org/namespaces/inkscape"
   version="1.1"
   id="svg2"
   xml:space="preserve"
   width="768"
   height="576"
   viewBox="0 0 768 576"
   sodipodi:docname="Fig1.svg"
   inkscape:version="0.92.2 (5c3e80d, 2017-08-06)"><metadata
     id="metadata8"><rdf:RDF><cc:Work
         rdf:about=""><dc:format>image/svg+xml</dc:format><dc:type
           rdf:resource="http://purl.org/dc/dcmitype/StillImage" /><dc:title></dc:title></cc:Work></rdf:RDF></metadata><defs
     id="defs6" /><sodipodi:namedview
     pagecolor="#ffffff"
     bordercolor="#666666"
     borderopacity="1"
     objecttolerance="10"
     gridtolerance="10"
     guidetolerance="10"
     inkscape:pageopacity="0"
     inkscape:pageshadow="2"
     inkscape:window-width="1875"
     inkscape:window-height="1145"
     id="namedview4"
     showgrid="false"
     inkscape:zoom="1.1588694"
     inkscape:cx="379.68545"
     inkscape:cy="288"
     inkscape:window-x="45"
     inkscape:window-y="27"
     inkscape:window-maximized="1"
     inkscape:current-layer="g10" /><g
     id="g10"
     inkscape:groupmode="layer"
     inkscape:label="ink_ext_XXXXXX"
     transform="matrix(1.3333333,0,0,-1.3333333,0,576)"><path
       inkscape:connector-curvature="0"
       id="path14"
       style="fill:#ffffff;fill-opacity:1;fill-rule:nonzero;stroke:none;stroke-width:0.04320617"
       d="M 52.421782,210.98149 H 287.35663 V 408.70141 H 52.421782 Z" /><path
       inkscape:connector-curvature="0"
       id="path16"
       style="fill:#ffffff;fill-opacity:1;fill-rule:nonzero;stroke:none;stroke-width:0.04320617"
       d="M 52.421782,210.98149 H 287.35663 V 408.70141 H 52.421782 Z" /><path
       inkscape:connector-curvature="0"
       id="path18"
       style="fill:#ffffff;fill-opacity:1;fill-rule:nonzero;stroke:none;stroke-width:0.04320617"
       d="M 82.963353,232.73064 H 265.03782 L 82.963353,393.87242" /><path
       inkscape:connector-curvature="0"
       id="path20"
       style="fill:#ffffff;fill-opacity:1;fill-rule:nonzero;stroke:none;stroke-width:0.04320617"
       d="M 265.03782,232.73064 V 393.87242 H 82.963353" /><path
       inkscape:connector-curvature="0"
       id="path22"
       style="fill:none;stroke:#262626;stroke-width:0.375;stroke-linecap:butt;stroke-linejoin:miter;stroke-miterlimit:10;stroke-dasharray:11.99999992, 0;stroke-dashoffset:0;stroke-opacity:1"
       d="M 82.963353,232.73064 H 265.03782" /><path
       inkscape:connector-curvature="0"
       id="path24"
       style="fill:none;stroke:#262626;stroke-width:0.375;stroke-linecap:butt;stroke-linejoin:miter;stroke-miterlimit:10;stroke-dasharray:11.99999992, 0;stroke-dashoffset:0;stroke-opacity:1"
       d="M 82.963353,393.87242 H 265.03782" /><path
       inkscape:connector-curvature="0"
       id="path26"
       style="fill:none;stroke:#262626;stroke-width:0.375;stroke-linecap:butt;stroke-linejoin:miter;stroke-miterlimit:10;stroke-dasharray:11.99999992, 0;stroke-dashoffset:0;stroke-opacity:1"
       d="M 82.963353,232.73064 V 393.87242" /><path
       inkscape:connector-curvature="0"
       id="path28"
       style="fill:none;stroke:#262626;stroke-width:0.375;stroke-linecap:butt;stroke-linejoin:miter;stroke-miterlimit:10;stroke-dasharray:11.99999992, 0;stroke-dashoffset:0;stroke-opacity:1"
       d="M 265.03782,232.73064 V 393.87242" /><g
       transform="matrix(0.407873,0,0,0.457685,52.421782,210.98149)"
       id="g30"><text
         id="text34"
         style="font-variant:normal;font-weight:normal;font-size:30.32081604px;font-family:Helvetica;-inkscape-font-specification:Helvetica;writing-mode:lr-tb;fill:#262626;fill-opacity:1;fill-rule:nonzero;stroke:none;stroke-width:1.895051"
         transform="scale(1.0299696,-0.97090246)"
         x="274.28049"
         y="-17.223248"><tspan
           id="tspan32"
           sodipodi:role="line"
           y="-17.223248"
           x="274.28049 296.17212 313.03049"
           style="stroke-width:1.895051">Day</tspan></text>
<text
         id="text38"
         style="font-variant:normal;font-weight:normal;font-size:27.6307869px;font-family:Helvetica;-inkscape-font-specification:Helvetica;writing-mode:lr-tb;fill:#262626;fill-opacity:1;fill-rule:nonzero;stroke:none;stroke-width:1.72692418"
         transform="matrix(0,0.90648623,1.1031607,0,0,0)"
         x="214.91046"
         y="59.452606"><tspan
           id="tspan36"
           sodipodi:role="line"
           y="59.452606"
           x="214.91046 233.34021 241.02156"
           style="stroke-width:1.72692418">P/G</tspan></text>
</g><path
       inkscape:connector-curvature="0"
       id="path40"
       style="fill:none;stroke:#ff0000;stroke-width:0.5625;stroke-linecap:butt;stroke-linejoin:miter;stroke-miterlimit:10;stroke-dasharray:none;stroke-opacity:1"
       d="m 83.418539,334.05573 h 0.910373 l 0.455186,1.78085 0.455227,1.82891 h 0.455186 l 0.455187,1.8788 h 0.455023 l 0.455186,1.93143 h 0.455186 l 0.455227,1.98544 h 0.455187 l 0.455186,6.3069 0.455186,9.32899 0.455186,2.51773 h 0.455187 0.455227 0.455186 0.455186 0.455187 0.455186 l 0.455186,2.59827 h 0.455186 0.455187 l 0.455186,2.68387 0.455186,-5.28214 h 0.455186 0.455187 0.455186 0.455186 0.455187 l 0.455186,2.59827 h 0.455186 l 0.455186,2.68387 h 0.455187 0.455186 0.455186 0.455186 0.45519 0.45518 l 0.45519,2.77311 h 0.45519 0.45518 0.45519 0.45518 0.45519 l 0.45519,-2.77311 h 0.45518 l 0.45519,2.77311 h 0.45519 0.45518 0.45519 0.45518 0.45519 0.45519 0.45518 0.45519 0.45519 0.45518 0.45519 0.45518 0.45519 0.45519 0.45518 0.45519 0.45519 0.45518 l 0.45519,-2.77311 h 0.45518 0.45519 0.45519 0.45518 0.45519 l 0.45519,-2.68387 0.45518,-2.59827 0.45519,-2.51773 0.45518,-2.43992 h 0.45519 l 0.45519,-2.36577 h 0.45518 l 0.45519,-2.29529 0.45519,-2.22801 0.45518,-2.16302 h 0.45519 0.45519 l 0.45518,-2.10169 0.45519,-4.02763 0.45518,-3.81023 h 0.45519 0.45519 l 0.45518,-5.34393 0.45519,-1.69023 h 0.45519 0.45518 l 0.45519,-1.6472 h 0.45518 0.45519 l 0.45519,-1.60602 0.45518,-1.5662 0.45519,-1.52821 0.45519,-1.49114 h 0.45518 l 0.45519,-2.87746 h 0.45518 l 0.45519,-4.07111 h 0.45519 0.45518 l 0.45519,-1.29571 h 0.45519 0.45518 l 0.45519,-1.26733 h 0.45518 l 0.45519,-1.23941 h 0.45519 l 0.45518,-1.21241 0.45519,-5.68673 h 0.45519 l 0.45518,-1.06778 0.45519,-1.04627 h 0.45518 l 0.45519,-1.02521 0.45519,-1.99048 0.45518,-0.96571 0.45519,-1.87742 0.45519,-1.80649 0.45518,-0.87875 0.45519,-2.5397 0.45518,-0.81651 0.45519,-1.58999 0.45519,-0.77441 0.45518,-0.76067 0.45519,-1.4829 0.45519,-1.43393 h 0.45518 l 0.45519,-1.38632 h 0.45518 0.45519 l 0.45519,-0.67646 0.45518,-0.66548 0.45519,-3.17267 h 0.45519 l 0.45518,-1.78863 h 0.45519 l 0.45518,-0.57806 0.45519,-0.56936 0.45519,-1.114 0.45518,-1.6106 0.45519,-1.03574 0.45519,-2.46555 0.45518,-0.47279 0.45519,-0.46683 0.45518,-1.80466 h 0.45519 0.45519 l 0.45518,-0.43617 h 0.45519 l 0.45519,-0.43114 h 0.45518 l 0.45519,-0.84489 h 0.45519 l 0.45518,-0.4142 0.45519,-0.40917 h 0.45518 l 0.45519,-0.40414 0.45519,-2.32138 0.45518,-0.37072 0.45519,-0.72772 0.45519,-1.06 0.45518,-0.34509 h 0.45519 0.45518 0.45519 0.45519 l 0.45518,-0.34098 0.45519,-0.67051 0.45519,-0.32953 0.45518,-0.32587 0.45519,-0.32221 0.45518,-0.31855 0.45519,-0.31535 0.45519,-0.31127 h 0.45518 l 0.45519,-0.61288 0.45519,-0.30139 0.45518,-0.29823 0.45519,-0.58675 0.45518,-0.57444 h 0.45519 l 0.45519,-0.28266 0.45518,-0.55655 0.45519,-0.27392 0.45519,-0.271 h 0.45518 0.45519 0.45518 l 0.45519,-0.26839 0.45519,-1.04622 h 0.45518 0.45519 0.45519 0.45518 l 0.45519,-0.25493 0.45518,-0.25246 0.45519,-0.25012 0.45519,-0.24743 h 0.45518 0.45519 0.45519 0.45518 0.45519 0.45518 l 0.45519,-0.24513 0.45519,-0.48304 h 0.45518 l 0.45519,-0.23814 h 0.45519 0.45518 0.45519 0.45518 0.45519 0.45519 l 0.45518,-0.46912 0.45519,-0.23136 h 0.45519 0.45518 0.45519 0.45519 0.45518 l 0.45519,0.23136 h 0.45518 0.45519 0.45519 0.45518 0.45519 0.45519 0.45518 l 0.45519,0.46912 h 0.45518 0.45519 0.45519 l 0.45518,0.23814 h 0.45519 l 0.45519,0.48304 h 0.45518 0.45519 l 0.45518,0.24513 h 0.45519 l 0.45519,0.24743 h 0.45518 0.45519 0.45519 0.45518 0.45519 0.45518 0.45519 l 0.45519,0.25012 h 0.45518 0.45519 l 0.45519,1.02513 h 0.45518 0.45519 l 0.45518,3.34219 h 0.45519 l 0.45519,0.29823 0.45518,0.30139 h 0.45519 0.45519 0.45518 0.45519 l 0.45518,0.61288 0.45519,0.31127 h 0.45519 0.45518 0.45519 l 0.45519,0.6339 0.45518,0.32221 0.45519,1.32591 0.45518,1.03529 0.45519,2.18453 0.45519,2.75938 0.45518,1.69023 0.45519,2.24083 0.45519,1.90534 0.45518,1.49983 0.45519,1.56483 0.45518,1.08151 h 0.45519 0.45519 0.45518 l 0.45519,0.55288 h 0.45519 l 0.45518,0.56112 0.45519,0.56936 h 0.45519 l 0.45518,0.57806 0.45519,0.58721 h 0.45518 0.45519 l 0.45519,0.5959 h 0.45518 l 0.45519,1.22019 h 0.45519 0.45518 l 0.45519,0.62428 0.45518,1.27878 0.45519,0.65494 0.45519,0.66548 0.45518,0.67646 0.45519,1.38632 0.45519,0.71079 0.45518,0.72314 0.45519,3.80611 0.45518,3.29625 0.45519,0.86182 0.45519,1.77353 0.45518,0.91171 h 0.45519 0.45519 l 0.45518,0.92955 0.45519,0.94787 h 0.45518 l 0.45519,0.96571 0.45519,0.9854 h 0.45518 l 0.45519,2.03029 h 0.45519 0.45518 l 0.45519,1.04627 0.45518,1.06778 h 0.45519 0.45519 0.45518 l 0.45519,3.33927 0.45519,7.36232 h 0.45518 l 0.45519,1.32591 0.45518,2.7452 0.45519,2.87746 0.45519,1.49114 0.45518,1.52821 0.45519,1.5662 0.45519,1.60602 0.45518,1.6472 0.45519,3.4244 0.45518,1.78085 0.45519,1.82891 0.45519,1.8788 h 0.45518 l 0.45519,1.93143 0.45519,1.98544 h 0.45518 0.45519 l 0.45518,2.04219 0.45519,2.10169 h 0.45519 l 0.45518,2.16302 h 0.45519 0.45519 0.45518 0.45519 0.45518 0.45519 0.45519 l 0.45518,6.88907 0.45519,7.55592 0.45519,5.45698" /><path
       inkscape:connector-curvature="0"
       id="path42"
       style="fill:none;stroke:#0000ff;stroke-width:0.5625;stroke-linecap:butt;stroke-linejoin:miter;stroke-miterlimit:10;stroke-dasharray:none;stroke-opacity:1"
       d="m 83.418539,309.64281 0.455187,2.39873 0.455186,1.23941 h 3.641408 l 0.455187,3.88895 h 0.455186 0.455186 l 0.455186,-2.62162 h 0.455187 0.455227 0.455186 0.455186 0.455187 0.455186 0.455186 0.455186 0.455187 0.455186 0.455186 0.455186 0.455187 0.455186 0.455186 l 0.455187,1.29571 h 0.455186 l 0.455186,-1.29571 h 0.455186 0.455187 0.455186 0.455186 l 0.455186,1.29571 0.45519,-1.29571 h 0.45518 0.45519 0.45519 0.45518 0.45519 0.45518 0.45519 0.45519 0.45518 0.45519 0.45519 l 0.45518,-1.26733 h 0.45519 0.45518 0.45519 0.45519 0.45518 0.45519 0.45519 0.45518 0.45519 0.45518 0.45519 0.45519 0.45518 0.45519 0.45519 0.45518 0.45519 0.45518 0.45519 l 0.45519,-1.23941 h 0.45518 0.45519 0.45519 0.45518 0.45519 0.45518 0.45519 0.45519 0.45518 0.45519 l 0.45519,-1.21241 0.45518,-1.18632 h 0.45519 0.45519 0.45518 l 0.45519,-1.16114 0.45518,-1.13643 h 0.45519 l 0.45519,-1.11309 0.45518,-1.08975 h 0.45519 l 0.45519,-1.06778 h 0.45518 l 0.45519,-1.04627 h 0.45518 0.45519 0.45519 0.45518 0.45519 0.45519 l 0.45518,-1.02521 h 0.45519 l 0.45518,-1.00508 h 0.45519 0.45519 0.45518 0.45519 0.45519 0.45518 l 0.45519,-0.9854 h 0.45518 0.45519 0.45519 l 0.45518,-0.96571 h 0.45519 0.45519 0.45518 0.45519 l 0.45518,-0.94787 h 0.45519 0.45519 0.45518 l 0.45519,-0.92955 h 0.45519 0.45518 l 0.45519,-0.91171 h 0.45518 0.45519 0.45519 0.45518 0.45519 l 0.45519,-0.89478 h 0.45518 0.45519 0.45518 l 0.45519,-0.87875 h 0.45519 0.45518 l 0.45519,-0.86182 h 0.45519 l 0.45518,-0.84672 h 0.45519 0.45518 l 0.45519,-0.83116 h 0.45519 0.45518 0.45519 l 0.45519,-0.81651 h 0.45518 l 0.45519,-0.80186 h 0.45518 0.45519 l 0.45519,-0.78813 h 0.45518 0.45519 0.45519 0.45518 0.45519 0.45519 0.45518 l 0.45519,-0.77441 h 0.45518 0.45519 l 0.45519,-0.76067 h 0.45518 0.45519 l 0.45519,-0.74786 0.45518,-0.73504 h 0.45519 0.45518 0.45519 0.45519 0.45518 l 0.45519,-0.72314 h 0.45519 0.45518 0.45519 l 0.45518,-0.71079 h 0.45519 0.45519 0.45518 0.45519 0.45519 l 0.45518,-0.69888 h 0.45519 0.45518 0.45519 l 0.45519,-0.68744 h 0.45518 0.45519 0.45519 l 0.45518,-0.67646 h 0.45519 0.45518 l 0.45519,-0.66548 h 0.45519 0.45518 0.45519 0.45519 0.45518 0.45519 0.45518 l 0.45519,-0.65494 h 0.45519 0.45518 0.45519 0.45519 0.45518 0.45519 0.45518 0.45519 0.45519 0.45518 0.45519 0.45519 0.45518 0.45519 0.45518 0.45519 0.45519 0.45518 0.45519 0.45519 0.45518 0.45519 0.45519 0.45518 0.45519 0.45518 0.45519 0.45519 0.45518 0.45519 0.45519 0.45518 0.45519 0.45518 0.45519 0.45519 0.45518 0.45519 0.45519 0.45518 0.45519 0.45518 0.45519 0.45519 0.45518 0.45519 0.45519 0.45518 0.45519 0.45518 0.45519 l 0.45519,0.65494 h 0.45518 0.45519 0.45519 0.45518 0.45519 0.45518 l 0.45519,0.66548 h 0.45519 l 0.45518,0.67646 h 0.45519 0.45519 0.45518 0.45519 l 0.45518,0.68744 h 0.45519 0.45519 0.45518 0.45519 0.45519 l 0.45518,0.69888 h 0.45519 0.45518 l 0.45519,1.43393 0.45519,0.73504 0.45518,0.74786 h 0.45519 0.45519 0.45518 l 0.45519,0.76067 h 0.45518 l 0.45519,0.77441 h 0.45519 0.45518 l 0.45519,0.78813 h 0.45519 0.45518 0.45519 l 0.45519,0.80186 h 0.45518 0.45519 0.45518 0.45519 l 0.45519,0.81651 h 0.45518 0.45519 l 0.45519,0.83116 h 0.45518 l 0.45519,0.84672 h 0.45518 0.45519 l 0.45519,0.86182 h 0.45518 0.45519 0.45519 0.45518 l 0.45519,0.87875 0.45518,1.80649 h 0.45519 0.45519 0.45518 0.45519 0.45519 l 0.45518,0.92955 h 0.45519 0.45518 0.45519 0.45519 l 0.45518,0.94787 h 0.45519 0.45519 0.45518 0.45519 0.45518 l 0.45519,0.96571 h 0.45519 0.45518 l 0.45519,3.01569 0.45519,2.11405 0.45518,1.08975 0.45519,1.11309 h 0.45518 l 0.45519,1.13643 h 0.45519 l 0.45518,1.16114 h 0.45519 0.45519 0.45518 l 0.45519,1.18632 h 0.45518 0.45519 l 0.45519,1.21241 h 0.45518 l 0.45519,1.23941 h 0.45519 0.45518 0.45519 0.45518 0.45519 0.45519 0.45518 0.45519 0.45519 l 0.45518,1.26733 h 0.45519 0.45518 l 0.45519,-1.26733 0.45519,5.24553 h 0.45518 0.45519 0.45519" /><path
       inkscape:connector-curvature="0"
       id="path44"
       style="fill:none;stroke:#ff0000;stroke-width:0.5625;stroke-linecap:butt;stroke-linejoin:miter;stroke-miterlimit:10;stroke-dasharray:4.49999996, 4.49999996, 4.49999996, 4.49999996;stroke-dashoffset:0;stroke-opacity:1"
       d="m 83.418539,300.66761 h 0.910373 l 0.455186,1.33553 0.455227,1.37168 h 0.455186 l 0.455187,1.40921 h 0.455023 l 0.455186,1.44812 h 0.455186 l 0.455227,1.4893 h 0.455187 l 0.455186,4.73018 0.455186,6.99709 0.455186,1.88795 h 0.455187 0.455227 0.455186 0.455186 0.455187 0.455186 l 0.455186,1.94882 h 0.455186 0.455187 l 0.455186,2.0129 0.455186,-3.96172 h 0.455186 0.455187 0.455186 0.455186 0.455187 l 0.455186,1.94882 h 0.455186 l 0.455186,2.0129 h 0.455187 0.455186 0.455186 0.455186 0.45519 0.45518 l 0.45519,2.07972 h 0.45519 0.45518 0.45519 0.45518 0.45519 l 0.45519,-2.07972 h 0.45518 l 0.45519,2.07972 h 0.45519 0.45518 0.45519 0.45518 0.45519 0.45519 0.45518 0.45519 0.45519 0.45518 0.45519 0.45518 0.45519 0.45519 0.45518 0.45519 0.45519 0.45518 l 0.45519,-2.07972 h 0.45518 0.45519 0.45519 0.45518 0.45519 l 0.45519,-2.0129 0.45518,-1.94882 0.45519,-1.88795 0.45518,-1.83029 h 0.45519 l 0.45519,-1.77444 h 0.45518 l 0.45519,-1.72135 0.45519,-1.67101 0.45518,-1.6225 h 0.45519 0.45519 l 0.45518,-1.57581 0.45519,-3.02117 0.45518,-2.85733 h 0.45519 0.45519 l 0.45518,-4.00795 0.45519,-1.26779 h 0.45519 0.45518 l 0.45519,-1.23529 h 0.45518 0.45519 l 0.45519,-1.20463 0.45518,-1.17487 0.45519,-1.14605 0.45519,-1.11858 h 0.45518 l 0.45519,-2.15798 h 0.45518 l 0.45519,-3.05322 h 0.45519 0.45518 l 0.45519,-0.97166 h 0.45519 0.45518 l 0.45519,-0.95062 h 0.45518 l 0.45519,-0.92955 h 0.45519 l 0.45518,-0.90897 0.45519,-4.26516 h 0.45519 l 0.45518,-0.80095 0.45519,-0.78493 h 0.45518 l 0.45519,-0.76891 0.45519,-1.49251 0.45518,-0.72452 0.45519,-1.40784 0.45519,-1.3552 0.45518,-0.65861 0.45519,-1.90534 0.45518,-0.61193 0.45519,-1.19273 0.45519,-0.5808 0.45518,-0.57027 0.45519,-1.11264 0.45519,-1.0751 h 0.45518 l 0.45519,-1.03986 h 0.45518 0.45519 l 0.45519,-0.50711 0.45518,-0.49934 0.45519,-2.3795 h 0.45519 l 0.45518,-1.34102 h 0.45519 l 0.45518,-0.43389 0.45519,-0.42702 0.45519,-0.8355 0.45518,-1.20801 0.45519,-0.77683 0.45519,-1.84896 0.45518,-0.3547 0.45519,-0.3499 0.45518,-1.35356 h 0.45519 0.45519 l 0.45518,-0.32738 h 0.45519 l 0.45519,-0.32304 h 0.45518 l 0.45519,-0.6338 h 0.45519 l 0.45518,-0.3109 0.45519,-0.30679 h 0.45518 l 0.45519,-0.30303 0.45519,-1.74099 0.45518,-0.278 0.45519,-0.54584 0.45519,-0.79504 0.45518,-0.25887 h 0.45519 0.45518 0.45519 0.45519 l 0.45518,-0.25584 0.45519,-0.50295 0.45519,-0.24706 0.45518,-0.2444 0.45519,-0.24153 0.45518,-0.23904 0.45519,-0.23617 0.45519,-0.23365 h 0.45518 l 0.45519,-0.45965 0.45519,-0.22619 0.45518,-0.22367 0.45519,-0.43997 0.45518,-0.43087 h 0.45519 l 0.45519,-0.21204 0.45518,-0.41727 0.45519,-0.20541 0.45519,-0.20331 h 0.45518 0.45519 0.45518 l 0.45519,-0.20129 0.45519,-0.7847 h 0.45518 0.45519 0.45519 0.45518 l 0.45519,-0.19126 0.45518,-0.18935 0.45519,-0.18756 0.45519,-0.18554 h 0.45518 0.45519 0.45519 0.45518 0.45519 0.45518 l 0.45519,-0.18381 0.45519,-0.36239 h 0.45518 l 0.45519,-0.17841 h 0.45519 0.45518 0.45519 0.45518 0.45519 0.45519 l 0.45518,-0.35205 0.45519,-0.17342 h 0.45519 0.45518 0.45519 0.45519 0.45518 l 0.45519,0.17342 h 0.45518 0.45519 0.45519 0.45518 0.45519 0.45519 0.45518 l 0.45519,0.35205 h 0.45518 0.45519 0.45519 l 0.45518,0.17841 h 0.45519 l 0.45519,0.36239 h 0.45518 0.45519 l 0.45518,0.18381 h 0.45519 l 0.45519,0.18554 h 0.45518 0.45519 0.45519 0.45518 0.45519 0.45518 0.45519 l 0.45519,0.18756 h 0.45518 0.45519 l 0.45519,0.76896 h 0.45518 0.45519 l 0.45518,2.50651 h 0.45519 l 0.45519,0.22367 0.45518,0.22619 h 0.45519 0.45519 0.45518 0.45519 l 0.45518,0.45965 0.45519,0.23365 h 0.45519 0.45518 0.45519 l 0.45519,0.47521 0.45518,0.24153 0.45519,0.99441 0.45518,0.77664 0.45519,1.63815 0.45519,2.06961 0.45518,1.26774 0.45519,1.68094 0.45519,1.42866 0.45518,1.1249 0.45519,1.17373 0.45518,0.81111 h 0.45519 0.45519 0.45518 l 0.45519,0.41443 h 0.45519 l 0.45518,0.42107 0.45519,0.42702 h 0.45519 l 0.45518,0.43389 0.45519,0.43984 h 0.45518 0.45519 l 0.45519,0.44715 h 0.45518 l 0.45519,0.91492 h 0.45519 0.45518 l 0.45519,0.46821 0.45518,0.95931 0.45519,0.49109 0.45519,0.49934 0.45518,0.50711 0.45519,1.03986 0.45519,0.5332 0.45518,0.5419 0.45519,2.85458 0.45518,2.47242 0.45519,0.64671 0.45519,1.33003 0.45518,0.68378 h 0.45519 0.45519 l 0.45518,0.69706 0.45519,0.71078 h 0.45518 l 0.45519,0.72452 0.45519,0.73916 h 0.45518 l 0.45519,1.52226 h 0.45519 0.45518 l 0.45519,0.78493 0.45518,0.80095 h 0.45519 0.45519 0.45518 l 0.45519,2.50445 0.45519,5.52151 h 0.45518 l 0.45519,0.99455 0.45518,2.05867 0.45519,2.15798 0.45519,1.11858 0.45518,1.14605 0.45519,1.17487 0.45519,1.20463 0.45518,1.23529 0.45519,2.56853 0.45518,1.33553 0.45519,1.37168 0.45519,1.40921 h 0.45518 l 0.45519,1.44812 0.45519,1.4893 h 0.45518 0.45519 l 0.45518,1.53187 0.45519,1.57581 h 0.45519 l 0.45518,1.6225 h 0.45519 0.45519 0.45518 0.45519 0.45518 0.45519 0.45519 l 0.45518,5.1668 0.45519,5.66706 0.45519,4.09262" /><path
       inkscape:connector-curvature="0"
       id="path46"
       style="fill:none;stroke:#0000ff;stroke-width:0.5625;stroke-linecap:butt;stroke-linejoin:miter;stroke-miterlimit:10;stroke-dasharray:4.49999996, 4.49999996, 4.49999996, 4.49999996;stroke-dashoffset:0;stroke-opacity:1"
       d="m 83.418539,268.71525 0.455187,1.49892 0.455186,0.77486 h 3.641408 l 0.455187,2.43031 h 0.455186 0.455186 l 0.455186,-1.63852 h 0.455187 0.455227 0.455186 0.455186 0.455187 0.455186 0.455186 0.455186 0.455187 0.455186 0.455186 0.455186 0.455187 0.455186 0.455186 l 0.455187,0.81011 h 0.455186 l 0.455186,-0.81011 h 0.455186 0.455187 0.455186 0.455186 l 0.455186,0.81011 0.45519,-0.81011 h 0.45518 0.45519 0.45519 0.45518 0.45519 0.45518 0.45519 0.45519 0.45518 0.45519 0.45519 l 0.45518,-0.79179 h 0.45519 0.45518 0.45519 0.45519 0.45518 0.45519 0.45519 0.45518 0.45519 0.45518 0.45519 0.45519 0.45518 0.45519 0.45519 0.45518 0.45519 0.45518 0.45519 l 0.45519,-0.77486 h 0.45518 0.45519 0.45519 0.45518 0.45519 0.45518 0.45519 0.45519 0.45518 0.45519 l 0.45519,-0.75747 0.45518,-0.74145 h 0.45519 0.45519 0.45518 l 0.45519,-0.72589 0.45518,-0.71033 h 0.45519 l 0.45519,-0.69568 0.45518,-0.68103 h 0.45519 l 0.45519,-0.66731 h 0.45518 l 0.45519,-0.65403 h 0.45518 0.45519 0.45519 0.45518 0.45519 0.45519 l 0.45518,-0.64076 h 0.45519 l 0.45518,-0.62794 h 0.45519 0.45519 0.45518 0.45519 0.45519 0.45518 l 0.45519,-0.61605 h 0.45518 0.45519 0.45519 l 0.45518,-0.60368 h 0.45519 0.45519 0.45518 0.45519 l 0.45518,-0.59225 h 0.45519 0.45519 0.45518 l 0.45519,-0.5808 h 0.45519 0.45518 l 0.45519,-0.56982 h 0.45518 0.45519 0.45519 0.45518 0.45519 l 0.45519,-0.55975 h 0.45518 0.45519 0.45518 l 0.45519,-0.54876 h 0.45519 0.45518 l 0.45519,-0.5387 h 0.45519 l 0.45518,-0.52908 h 0.45519 0.45518 l 0.45519,-0.51993 h 0.45519 0.45518 0.45519 l 0.45519,-0.51032 h 0.45518 l 0.45519,-0.50093 h 0.45518 0.45519 l 0.45519,-0.49257 h 0.45518 0.45519 0.45519 0.45518 0.45519 0.45519 0.45518 l 0.45519,-0.48377 h 0.45518 0.45519 l 0.45519,-0.47558 h 0.45518 0.45519 l 0.45519,-0.46752 0.45518,-0.45947 h 0.45519 0.45518 0.45519 0.45519 0.45518 l 0.45519,-0.45179 h 0.45519 0.45518 0.45519 l 0.45518,-0.44427 h 0.45519 0.45519 0.45518 0.45519 0.45519 l 0.45518,-0.43677 h 0.45519 0.45518 0.45519 l 0.45519,-0.42981 h 0.45518 0.45519 0.45519 l 0.45518,-0.42281 h 0.45519 0.45518 l 0.45519,-0.41585 h 0.45519 0.45518 0.45519 0.45519 0.45518 0.45519 0.45518 l 0.45519,-0.40922 h 0.45519 0.45518 0.45519 0.45519 0.45518 0.45519 0.45518 0.45519 0.45519 0.45518 0.45519 0.45519 0.45518 0.45519 0.45518 0.45519 0.45519 0.45518 0.45519 0.45519 0.45518 0.45519 0.45519 0.45518 0.45519 0.45518 0.45519 0.45519 0.45518 0.45519 0.45519 0.45518 0.45519 0.45518 0.45519 0.45519 0.45518 0.45519 0.45519 0.45518 0.45519 0.45518 0.45519 0.45519 0.45518 0.45519 0.45519 0.45518 0.45519 0.45518 0.45519 l 0.45519,0.40922 h 0.45518 0.45519 0.45519 0.45518 0.45519 0.45518 l 0.45519,0.41585 h 0.45519 l 0.45518,0.42281 h 0.45519 0.45519 0.45518 0.45519 l 0.45518,0.42981 h 0.45519 0.45519 0.45518 0.45519 0.45519 l 0.45518,0.43677 h 0.45519 0.45518 l 0.45519,0.89606 0.45519,0.45947 0.45518,0.46752 h 0.45519 0.45519 0.45518 l 0.45519,0.47558 h 0.45518 l 0.45519,0.48377 h 0.45519 0.45518 l 0.45519,0.49257 h 0.45519 0.45518 0.45519 l 0.45519,0.50093 h 0.45518 0.45519 0.45518 0.45519 l 0.45519,0.51032 h 0.45518 0.45519 l 0.45519,0.51993 h 0.45518 l 0.45519,0.52908 h 0.45518 0.45519 l 0.45519,0.5387 h 0.45518 0.45519 0.45519 0.45518 l 0.45519,0.54876 0.45518,1.12957 h 0.45519 0.45519 0.45518 0.45519 0.45519 l 0.45518,0.5808 h 0.45519 0.45518 0.45519 0.45519 l 0.45518,0.59225 h 0.45519 0.45519 0.45518 0.45519 0.45518 l 0.45519,0.60368 h 0.45519 0.45518 l 0.45519,1.88475 0.45519,1.32134 0.45518,0.68103 0.45519,0.69568 h 0.45518 l 0.45519,0.71033 h 0.45519 l 0.45518,0.72589 h 0.45519 0.45519 0.45518 l 0.45519,0.74145 h 0.45518 0.45519 l 0.45519,0.75747 h 0.45518 l 0.45519,0.77486 h 0.45519 0.45518 0.45519 0.45518 0.45519 0.45519 0.45518 0.45519 0.45519 l 0.45518,0.79179 h 0.45519 0.45518 l 0.45519,-0.79179 0.45519,3.2784 h 0.45518 0.45519 0.45519" /><path
       style="fill:none;stroke:#000000;stroke-width:0.45000002;stroke-linecap:butt;stroke-linejoin:miter;stroke-miterlimit:4;stroke-dasharray:0.45000003, 0.45000003;stroke-dashoffset:0;stroke-opacity:1"
       d="m 138.70478,298.1106 c -0.60834,-64.47617 -0.60834,-65.13671 -0.60834,-65.13671"
       id="path872"
       inkscape:connector-curvature="0" /><path
       style="fill:none;stroke:#000000;stroke-width:0.45000002;stroke-linecap:butt;stroke-linejoin:miter;stroke-miterlimit:4;stroke-dasharray:0.45000003, 0.45000003;stroke-dashoffset:0;stroke-opacity:1"
       d="m 147.52967,258.18031 c -0.205,-25.41108 -0.205,-25.67141 -0.205,-25.67141"
       id="path872-3"
       inkscape:connector-curvature="0" /><text
       xml:space="preserve"
       style="font-style:normal;font-weight:normal;font-size:11.29290676px;line-height:1.25;font-family:sans-serif;letter-spacing:0px;word-spacing:0px;fill:#000000;fill-opacity:1;stroke:none;stroke-width:0.28232267"
       x="119.81693"
       y="-239.67043"
       id="text891"
       transform="scale(1.0786771,-0.9270615)"><tspan
         sodipodi:role="line"
         id="tspan889"
         x="119.81693"
         y="-239.67043"
         style="stroke-width:0.28232267">M'</tspan></text>
<text
       xml:space="preserve"
       style="font-style:normal;font-weight:normal;font-size:11.29290676px;line-height:1.25;font-family:sans-serif;letter-spacing:0px;word-spacing:0px;fill:#000000;fill-opacity:1;stroke:none;stroke-width:0.2823227"
       x="133.95435"
       y="-239.52094"
       id="text891-6"
       transform="scale(1.0786771,-0.9270615)"><tspan
         sodipodi:role="line"
         id="tspan889-7"
         x="133.95435"
         y="-239.52094"
         style="stroke-width:0.2823227">M</tspan></text>
<ellipse
       style="opacity:1;fill:#ece1f4;fill-opacity:0.98395721;stroke:#d5f5f7;stroke-width:0.375;stroke-miterlimit:10;stroke-dasharray:11.99999994, 0;stroke-dashoffset:0;stroke-opacity:1"
       id="path911"
       cx="-101.28406"
       cy="-298.02753"
       transform="scale(1,-1)"
       rx="5.5010514"
       ry="1.6179563" /><ellipse
       style="opacity:1;fill:#0b0b10;fill-opacity:0.98395721;stroke:#d5f5f7;stroke-width:0.06110333;stroke-miterlimit:10;stroke-dasharray:1.95530674, 0;stroke-dashoffset:0;stroke-opacity:1"
       id="path913-5"
       cx="139.02629"
       cy="-297.90958"
       rx="2.0984962"
       ry="2.0984943"
       transform="scale(1,-1)" /><ellipse
       style="opacity:1;fill:#0b0b10;fill-opacity:0.98395721;stroke:#d5f5f7;stroke-width:0.06110333;stroke-miterlimit:10;stroke-dasharray:1.95530674, 0;stroke-dashoffset:0;stroke-opacity:1"
       id="path913-5-3"
       cx="147.65475"
       cy="-258.93356"
       rx="2.0984962"
       ry="2.0984943"
       transform="scale(1,-1)" /><path
       inkscape:connector-curvature="0"
       id="path995"
       style="fill:#ffffff;fill-opacity:1;fill-rule:nonzero;stroke:none;stroke-width:0.04335535"
       d="M 273.18381,217.59323 H 513.86806 V 411.92502 H 273.18381 Z" /><g
       transform="matrix(0.4178546,0,0,0.4498421,279.00845,213.06295)"
       id="g1031" /><g
       transform="matrix(0.4178546,0,0,0.4498421,279.00845,213.06295)"
       id="g1061" /><path
       inkscape:connector-curvature="0"
       id="path999"
       style="fill:#ffffff;fill-opacity:1;fill-rule:nonzero;stroke:none;stroke-width:0.37500003;stroke-miterlimit:10;stroke-dasharray:none"
       d="M 310.60285,232.16108 H 500.70914 L 310.60285,394.11239" /><path
       inkscape:connector-curvature="0"
       id="path1001"
       style="fill:#ffffff;fill-opacity:1;fill-rule:nonzero;stroke:none;stroke-width:0.37500003;stroke-miterlimit:10;stroke-dasharray:none"
       d="M 500.70914,232.16108 V 394.11239 H 310.60285" /><path
       inkscape:connector-curvature="0"
       id="path1003"
       style="fill:none;stroke:#262626;stroke-width:0.37500003;stroke-linecap:butt;stroke-linejoin:miter;stroke-miterlimit:10;stroke-dasharray:none;stroke-opacity:1"
       d="m 310.60285,232.16108 v 2.05396" /><path
       inkscape:connector-curvature="0"
       id="path1005"
       style="fill:none;stroke:#262626;stroke-width:0.37500003;stroke-linecap:butt;stroke-linejoin:miter;stroke-miterlimit:10;stroke-dasharray:none;stroke-opacity:1"
       d="m 310.60285,394.11239 v -2.05383" /><path
       inkscape:connector-curvature="0"
       id="path1007"
       style="fill:none;stroke:#262626;stroke-width:0.37500003;stroke-linecap:butt;stroke-linejoin:miter;stroke-miterlimit:10;stroke-dasharray:none;stroke-opacity:1"
       d="m 342.2872,232.16108 v 2.05396" /><path
       inkscape:connector-curvature="0"
       id="path1009"
       style="fill:none;stroke:#262626;stroke-width:0.37500003;stroke-linecap:butt;stroke-linejoin:miter;stroke-miterlimit:10;stroke-dasharray:none;stroke-opacity:1"
       d="m 342.2872,394.11239 v -2.05383" /><path
       inkscape:connector-curvature="0"
       id="path1011"
       style="fill:none;stroke:#262626;stroke-width:0.37500003;stroke-linecap:butt;stroke-linejoin:miter;stroke-miterlimit:10;stroke-dasharray:none;stroke-opacity:1"
       d="m 373.97159,232.16108 v 2.05396" /><path
       inkscape:connector-curvature="0"
       id="path1013"
       style="fill:none;stroke:#262626;stroke-width:0.37500003;stroke-linecap:butt;stroke-linejoin:miter;stroke-miterlimit:10;stroke-dasharray:none;stroke-opacity:1"
       d="m 373.97159,394.11239 v -2.05383" /><path
       inkscape:connector-curvature="0"
       id="path1015"
       style="fill:none;stroke:#262626;stroke-width:0.37500003;stroke-linecap:butt;stroke-linejoin:miter;stroke-miterlimit:10;stroke-dasharray:none;stroke-opacity:1"
       d="m 405.65598,232.16108 v 2.05396" /><path
       inkscape:connector-curvature="0"
       id="path1017"
       style="fill:none;stroke:#262626;stroke-width:0.37500003;stroke-linecap:butt;stroke-linejoin:miter;stroke-miterlimit:10;stroke-dasharray:none;stroke-opacity:1"
       d="m 405.65598,394.11239 v -2.05383" /><path
       inkscape:connector-curvature="0"
       id="path1019"
       style="fill:none;stroke:#262626;stroke-width:0.37500003;stroke-linecap:butt;stroke-linejoin:miter;stroke-miterlimit:10;stroke-dasharray:none;stroke-opacity:1"
       d="m 437.34036,232.16108 v 2.05396" /><path
       inkscape:connector-curvature="0"
       id="path1021"
       style="fill:none;stroke:#262626;stroke-width:0.37500003;stroke-linecap:butt;stroke-linejoin:miter;stroke-miterlimit:10;stroke-dasharray:none;stroke-opacity:1"
       d="m 437.34036,394.11239 v -2.05383" /><path
       inkscape:connector-curvature="0"
       id="path1023"
       style="fill:none;stroke:#262626;stroke-width:0.37500003;stroke-linecap:butt;stroke-linejoin:miter;stroke-miterlimit:10;stroke-dasharray:none;stroke-opacity:1"
       d="m 469.02475,232.16108 v 2.05396" /><path
       inkscape:connector-curvature="0"
       id="path1025"
       style="fill:none;stroke:#262626;stroke-width:0.37500003;stroke-linecap:butt;stroke-linejoin:miter;stroke-miterlimit:10;stroke-dasharray:none;stroke-opacity:1"
       d="m 469.02475,394.11239 v -2.05383" /><path
       inkscape:connector-curvature="0"
       id="path1027"
       style="fill:none;stroke:#262626;stroke-width:0.37500003;stroke-linecap:butt;stroke-linejoin:miter;stroke-miterlimit:10;stroke-dasharray:none;stroke-opacity:1"
       d="m 500.70914,232.16108 v 2.05396" /><path
       inkscape:connector-curvature="0"
       id="path1029"
       style="fill:none;stroke:#262626;stroke-width:0.37500003;stroke-linecap:butt;stroke-linejoin:miter;stroke-miterlimit:10;stroke-dasharray:none;stroke-opacity:1"
       d="m 500.70914,394.11239 v -2.05383" /><path
       inkscape:connector-curvature="0"
       id="path1037"
       style="fill:none;stroke:#262626;stroke-width:0.37500003;stroke-linecap:butt;stroke-linejoin:miter;stroke-miterlimit:10;stroke-dasharray:none;stroke-opacity:1"
       d="m 310.60285,232.16108 h 1.90273" /><path
       inkscape:connector-curvature="0"
       id="path1039"
       style="fill:none;stroke:#262626;stroke-width:0.37500003;stroke-linecap:butt;stroke-linejoin:miter;stroke-miterlimit:10;stroke-dasharray:none;stroke-opacity:1"
       d="m 500.70914,232.16108 h -1.90277" /><path
       inkscape:connector-curvature="0"
       id="path1041"
       style="fill:none;stroke:#262626;stroke-width:0.37500003;stroke-linecap:butt;stroke-linejoin:miter;stroke-miterlimit:10;stroke-dasharray:none;stroke-opacity:1"
       d="m 310.60285,264.55138 h 1.90273" /><path
       inkscape:connector-curvature="0"
       id="path1043"
       style="fill:none;stroke:#262626;stroke-width:0.37500003;stroke-linecap:butt;stroke-linejoin:miter;stroke-miterlimit:10;stroke-dasharray:none;stroke-opacity:1"
       d="m 500.70914,264.55138 h -1.90277" /><path
       inkscape:connector-curvature="0"
       id="path1045"
       style="fill:none;stroke:#262626;stroke-width:0.37500003;stroke-linecap:butt;stroke-linejoin:miter;stroke-miterlimit:10;stroke-dasharray:none;stroke-opacity:1"
       d="m 310.60285,296.94163 h 1.90273" /><path
       inkscape:connector-curvature="0"
       id="path1047"
       style="fill:none;stroke:#262626;stroke-width:0.37500003;stroke-linecap:butt;stroke-linejoin:miter;stroke-miterlimit:10;stroke-dasharray:none;stroke-opacity:1"
       d="m 500.70914,296.94163 h -1.90277" /><path
       inkscape:connector-curvature="0"
       id="path1049"
       style="fill:none;stroke:#262626;stroke-width:0.37500003;stroke-linecap:butt;stroke-linejoin:miter;stroke-miterlimit:10;stroke-dasharray:none;stroke-opacity:1"
       d="m 310.60285,329.33188 h 1.90273" /><path
       inkscape:connector-curvature="0"
       id="path1051"
       style="fill:none;stroke:#262626;stroke-width:0.37500003;stroke-linecap:butt;stroke-linejoin:miter;stroke-miterlimit:10;stroke-dasharray:none;stroke-opacity:1"
       d="m 500.70914,329.33188 h -1.90277" /><path
       inkscape:connector-curvature="0"
       id="path1053"
       style="fill:none;stroke:#262626;stroke-width:0.37500003;stroke-linecap:butt;stroke-linejoin:miter;stroke-miterlimit:10;stroke-dasharray:none;stroke-opacity:1"
       d="m 310.60285,361.72213 h 1.90273" /><path
       inkscape:connector-curvature="0"
       id="path1055"
       style="fill:none;stroke:#262626;stroke-width:0.37500003;stroke-linecap:butt;stroke-linejoin:miter;stroke-miterlimit:10;stroke-dasharray:none;stroke-opacity:1"
       d="m 500.70914,361.72213 h -1.90277" /><path
       inkscape:connector-curvature="0"
       id="path1057"
       style="fill:none;stroke:#262626;stroke-width:0.37500003;stroke-linecap:butt;stroke-linejoin:miter;stroke-miterlimit:10;stroke-dasharray:none;stroke-opacity:1"
       d="m 310.60285,394.11239 h 1.90273" /><path
       inkscape:connector-curvature="0"
       id="path1059"
       style="fill:none;stroke:#262626;stroke-width:0.37500003;stroke-linecap:butt;stroke-linejoin:miter;stroke-miterlimit:10;stroke-dasharray:none;stroke-opacity:1"
       d="m 500.70914,394.11239 h -1.90277" /><path
       inkscape:connector-curvature="0"
       id="path1077"
       style="fill:none;stroke:#262626;stroke-width:0.37500003;stroke-linecap:butt;stroke-linejoin:miter;stroke-miterlimit:10;stroke-dasharray:none;stroke-dashoffset:0;stroke-opacity:1"
       d="M 310.60285,232.16108 H 500.70914" /><path
       inkscape:connector-curvature="0"
       id="path1079"
       style="fill:none;stroke:#262626;stroke-width:0.37500003;stroke-linecap:butt;stroke-linejoin:miter;stroke-miterlimit:10;stroke-dasharray:none;stroke-dashoffset:0;stroke-opacity:1"
       d="M 310.60285,394.11239 H 500.70914" /><path
       inkscape:connector-curvature="0"
       id="path1081"
       style="fill:none;stroke:#262626;stroke-width:0.37500003;stroke-linecap:butt;stroke-linejoin:miter;stroke-miterlimit:10;stroke-dasharray:none;stroke-dashoffset:0;stroke-opacity:1"
       d="M 310.60285,232.16108 V 394.11239" /><path
       inkscape:connector-curvature="0"
       id="path1083"
       style="fill:none;stroke:#262626;stroke-width:0.37500003;stroke-linecap:butt;stroke-linejoin:miter;stroke-miterlimit:10;stroke-dasharray:none;stroke-dashoffset:0;stroke-opacity:1"
       d="M 500.70914,232.16108 V 394.11239" /><text
       transform="scale(0.88247363,-1.1331783)"
       style="font-variant:normal;font-weight:normal;font-size:13.36535072px;font-family:Helvetica;-inkscape-font-specification:Helvetica;writing-mode:lr-tb;fill:#262626;fill-opacity:1;fill-rule:nonzero;stroke:none;stroke-width:0.37500003;stroke-miterlimit:10;stroke-dasharray:none"
       id="text1089"
       x="448.16351"
       y="-192.70961"><tspan
         x="448.16351 457.07816 460.04523 466.72794"
         y="-192.70961"
         sodipodi:role="line"
         id="tspan1087"
         style="stroke-width:0.37500003;stroke-miterlimit:10;stroke-dasharray:none">Size</tspan></text>
<text
       transform="matrix(0,0.96171365,1.0398106,0,0,0)"
       style="font-variant:normal;font-weight:normal;font-size:13.25134754px;font-family:Helvetica;-inkscape-font-specification:Helvetica;writing-mode:lr-tb;fill:#262626;fill-opacity:1;fill-rule:nonzero;stroke:none;stroke-width:0.37500003;stroke-miterlimit:10;stroke-dasharray:none"
       id="text1093"
       x="268.57828"
       y="292.7356"><tspan
         x="268.57828 278.14581 285.51361 292.13916 295.82306 302.44876 306.86145 314.22925 320.85486 327.48056 330.42236 337.79013 345.15781 348.84171 356.20953 363.57718 366.51907 373.88675"
         y="292.7356"
         sodipodi:role="line"
         id="tspan1091"
         style="stroke-width:0.37500003;stroke-miterlimit:10;stroke-dasharray:none">Day crossing point</tspan></text>
<path
       inkscape:connector-curvature="0"
       id="path1095"
       style="fill:none;stroke:#0072bd;stroke-width:0.37500003;stroke-linecap:butt;stroke-linejoin:miter;stroke-miterlimit:10;stroke-dasharray:none;stroke-opacity:1"
       d="m 326.445,368.2001 15.8422,-22.67309 15.8422,-9.71716 15.84219,-29.15106 15.84219,-19.43433 15.8422,-19.43387 15.84219,-3.23921 15.84219,-9.71703 15.84219,-9.71718 15.8422,-3.23892 15.84219,-6.47806" /><path
       inkscape:connector-curvature="0"
       id="path1097"
       style="fill:none;stroke:#f31b19;stroke-width:0.56250001;stroke-linecap:butt;stroke-linejoin:miter;stroke-miterlimit:10;stroke-dasharray:none;stroke-opacity:1"
       d="m 326.445,368.2001 15.8422,-22.67309 15.8422,-9.71716 15.84219,-29.15106 15.84219,-19.43433 15.8422,-19.43387 15.84219,-3.23921 15.84219,-9.71703 15.84219,-9.71718 15.8422,-3.23892 15.84219,-6.47806" /></g></svg>